<?xml version="1.0" encoding="UTF-8"?>
<svg width="71px" height="71px" viewBox="0 0 71 71" version="1.1" xmlns="http://www.w3.org/2000/svg" xmlns:xlink="http://www.w3.org/1999/xlink">
    <!-- Generator: Sketch 58 (84663) - https://sketch.com -->
    <title>Group Copy</title>
    <desc>Created with Sketch.</desc>
    <g id="Page-1" stroke="none" stroke-width="1" fill="none" fill-rule="evenodd">
        <g id="Desktop-HD" transform="translate(-383.000000, -151.000000)">
            <g id="Group-Copy" transform="translate(383.000000, 151.000000)">
                <rect id="Rectangle-Copy" fill="#FFFFFF" x="0" y="0" width="71" height="71" rx="6"></rect>
                <path d="M33.6646259,22.8214286 L38.5668752,22.8214286 C40.8517596,22.8214286 42.8816041,23.3571834 44.6564696,24.4287092 C46.4313352,25.5002349 47.8083654,27.015128 48.7876015,28.9734337 C49.7668377,30.9317394 50.2564484,33.1917627 50.2564484,35.7535714 C50.2564484,38.3153802 49.7668377,40.5754035 48.7876015,42.5337092 C47.8083654,44.4920149 46.4313352,46.0069079 44.6564696,47.0784337 C42.8816041,48.1499594 40.8517596,48.6857143 38.5668752,48.6857143 L25.4418318,48.6857143 C25.3268015,48.6843793 25.209221,48.6857143 25.090428,48.6857143 C23.4676198,48.6857143 21.9719943,48.3639318 20.6035067,47.7203571 C19.2350191,47.0767825 18.1148138,46.1721487 17.2428571,45.0064286 L19.9313768,41.7642857 C21.3361959,43.7071526 23.0195315,44.6785714 24.981434,44.6785714 C27.621525,44.6785714 28.9415508,43.1121585 28.9415508,39.9792857 L28.9415508,26.7921429 L19.8950455,26.7921429 L19.8950455,22.8214286 L33.6646259,22.8214286 Z M37.7560302,26.8858163 L33.6638571,26.8854286 L33.6646259,39.7242857 C33.6646259,41.6749491 33.354773,43.3071443 32.7350613,44.62089 L37.7560302,44.6213265 C39.341206,44.6213265 40.7359339,44.2579985 41.9402557,43.5313316 C43.1445776,42.8046647 44.0709651,41.7701037 44.7194461,40.4276173 C45.3679271,39.085131 45.6921627,37.5271313 45.6921627,35.7535714 C45.6921627,33.9800115 45.3679271,32.4220118 44.7194461,31.0795255 C44.0709651,29.7370392 43.1445776,28.7024781 41.9402557,27.9758112 C40.7359339,27.2491443 39.341206,26.8858163 37.7560302,26.8858163 Z" id="JD-Copy" fill="#2d3748" fill-rule="nonzero"></path>
            </g>
        </g>
    </g>
</svg>
